<?xml version="1.0" encoding="UTF-8" standalone="no"?>
<!-- Created with Inkscape (http://www.inkscape.org/) -->

<svg
   version="1.1"
   id="svg1"
   width="177.77779"
   height="177.77779"
   viewBox="0 0 177.77779 177.77779"
   sodipodi:docname="confettologob.png"
   xmlns:inkscape="http://www.inkscape.org/namespaces/inkscape"
   xmlns:sodipodi="http://sodipodi.sourceforge.net/DTD/sodipodi-0.dtd"
   xmlns="http://www.w3.org/2000/svg"
   xmlns:svg="http://www.w3.org/2000/svg">
  <defs
     id="defs1" />
  <sodipodi:namedview
     id="namedview1"
     pagecolor="#505050"
     bordercolor="#eeeeee"
     borderopacity="1"
     inkscape:showpageshadow="0"
     inkscape:pageopacity="0"
     inkscape:pagecheckerboard="0"
     inkscape:deskcolor="#505050">
    <inkscape:page
       x="0"
       y="0"
       width="177.77779"
       height="177.77779"
       id="page2"
       margin="0"
       bleed="0" />
  </sodipodi:namedview>
  <g
     inkscape:groupmode="layer"
     inkscape:label="Image"
     id="g1">
    <path
       style="fill:#f9f9f9"
       d="m 58.299182,174.63351 c -3.62529,-0.47043 -5.381445,-1.04704 -9.155886,-3.00619 -5.316585,-2.75962 -7.56118,-5.29334 -15.986438,-18.04564 C 25.577051,142.10903 25.419485,141.91075 16.419176,132.51846 6.3344496,121.99452 3.7978617,118.64912 2.197558,113.76219 1.2684266,110.92485 1.1161199,109.64002 1.1457023,104.88889 L 1.1802935,99.333338 5.4753462,86.352342 9.7703989,73.371345 11.582896,59.907896 c 2.417047,-17.954112 3.660358,-21.416557 9.757584,-27.173491 3.871443,-3.655374 6.051867,-4.731414 20.867529,-10.298131 13.084053,-4.916097 13.839112,-5.074527 14.153192,-2.969687 0.189777,1.27181 -1.06474,1.861644 -15.133586,7.115332 -7.422835,2.771887 -12.683102,5.005268 -14.27043,6.058877 -4.28285,2.842793 -7.985252,7.738942 -9.405312,12.437817 -0.363969,1.204348 -1.47201,8.166231 -2.462313,15.470853 L 13.289009,73.830595 9.0571941,86.804189 C 5.371285,98.104184 4.7937573,100.29378 4.5802483,103.77778 c -0.2922556,4.76897 0.3062573,8.07496 2.1184142,11.7014 1.5247971,3.05139 4.1110255,6.07684 14.3250445,16.75784 7.067982,7.39114 7.85628,8.39973 14.711639,18.82292 7.933248,12.06205 9.403564,13.91235 12.898913,16.23243 6.146463,4.07979 9.55084,4.51189 24.561602,3.11746 6.308945,-0.58607 13.37081,-1.06421 15.693032,-1.06253 6.700527,0.005 28.050787,2.06858 28.762407,2.78019 0.69808,0.69809 0.34764,1.94608 -0.70358,2.50555 -0.43481,0.23141 -5.35544,-0.0371 -12.28105,-0.6701 -14.494492,-1.32483 -17.267424,-1.32123 -31.777778,0.0412 -6.477778,0.60824 -11.777778,1.08076 -11.777778,1.05006 0,-0.0307 -1.265369,-0.22004 -2.811932,-0.42073 z m 64.003248,-1.58552 c -0.78423,-1.40133 -0.0246,-2.24513 3.36061,-3.7328 5.54003,-2.43466 7.94274,-5.0721 16.78636,-18.42629 7.59819,-11.47354 7.71897,-11.62496 17.01616,-21.33334 12.58755,-13.14425 14.03506,-15.6442 14.02509,-24.22222 l -0.005,-4.66667 -4.33738,-13.333333 -4.33737,-13.333333 -1.73172,-12.666668 c -0.95245,-6.966667 -1.95923,-13.666667 -2.2373,-14.888889 -1.24449,-5.469991 -6.08755,-11.916834 -10.93254,-14.552848 -1.23281,-0.670733 -7.61664,-3.244287 -14.1863,-5.719009 -6.56965,-2.474722 -12.64483,-4.855988 -13.50038,-5.291703 -0.85556,-0.435715 -6.43922,-3.716628 -12.40813,-7.290918 C 97.252074,6.0676107 94.909916,5.1363225 88.666671,5.1813336 83.447834,5.2189591 80.562822,6.2204241 73.382131,10.487008 70.31149,12.311504 67.515777,13.748313 67.169435,13.679915 66.108461,13.470389 65.48946,12.112339 66.049216,11.222223 66.633834,10.29257 72.171665,6.8829881 77.11612,4.4084516 83.676246,1.1253247 91.118373,0.65487173 98.035476,3.0860375 c 1.392395,0.4893876 7.554034,3.8716433 13.692524,7.5161235 6.13849,3.644481 11.7774,6.937735 12.53091,7.318343 0.75351,0.380609 6.70915,2.694783 13.23475,5.142609 6.52559,2.447827 12.90909,5.010011 14.18553,5.693741 1.27645,0.683731 3.75066,2.663314 5.49825,4.399073 2.45879,2.442146 3.57819,4.000215 4.94935,6.888889 2.25765,4.756245 2.38839,5.355058 4.3082,19.732965 1.85765,13.912426 1.61002,12.861743 6.70396,28.444445 l 3.92277,12.000004 -0.006,5.11111 c -0.005,4.3694 -0.17471,5.58417 -1.16606,8.37093 -1.89687,5.33221 -3.65683,7.67533 -13.35338,17.77792 -9.06218,9.44165 -9.3894,9.84936 -16.82388,20.96226 -4.17007,6.23334 -8.2735,12.18201 -9.11874,13.21928 -1.94905,2.39185 -6.58606,5.71357 -9.84998,7.05604 -3.00521,1.23606 -3.89594,1.3019 -4.44083,0.32822 z m -60.815011,-8.20121 c -5.010096,-0.83703 -10.78931,-3.87037 -14.335112,-7.52407 -0.981421,-1.01129 -4.693499,-6.23067 -8.249061,-11.59862 -6.003439,-9.06359 -7.027282,-10.3479 -14.350619,-18.00146 -4.337278,-4.53285 -8.460156,-9.07479 -9.161951,-10.0932 -2.811371,-4.07971 -4.699955,-9.99661 -4.716292,-14.77606 l -0.0077,-2.25775 11.444445,-5.589863 c 22.942924,-11.206123 41.03513,-18.331193 59.000003,-23.235374 8.436547,-2.30307 13.046426,-3.012809 18.046927,-2.778513 9.027801,0.422993 11.552921,3.936459 9.508631,13.230356 -1.02232,4.647753 -0.88278,6.518926 0.59644,7.998147 0.69471,0.694707 2.05101,1.475266 3.01401,1.734575 2.82387,0.760388 4.62142,-0.02083 8.73968,-3.798257 4.91619,-4.509331 13.05912,-10.575468 19.84433,-14.783174 5.30381,-3.289054 16.28814,-9.373514 16.92208,-9.373514 0.16315,0 0.64109,2.434175 1.06208,5.409278 0.59436,4.200316 1.57876,7.900447 4.40452,16.555556 l 3.63909,11.146279 -0.005,5.777774 c -0.008,9.58793 -1.43584,12.28229 -12.80818,24.16494 -7.37568,7.70665 -8.40956,9.00343 -14.94258,18.74226 -7.29947,10.88138 -9.5213,13.41867 -13.94367,15.92342 -6.23867,3.53346 -9.67141,3.89501 -24.30092,2.55948 l -11.777778,-1.0752 -11.555556,1.05585 c -12.538635,1.14568 -12.691501,1.15127 -16.06814,0.58714 z m 39.153091,-49.08313 c 1.11329,-0.84205 3.05752,-0.83152 4.7149,0.0255 1.28722,0.66564 1.31126,0.65721 1.31126,-0.46008 0,-1.55362 1.11496,-3.13082 2.668,-3.77411 l 1.29134,-0.53489 -0.94598,-1.2795 c -0.97306,-1.31614 -1.24458,-3.57322 -0.59973,-4.98541 0.31265,-0.68468 0.20588,-0.7603 -0.73874,-0.52322 -1.46937,0.36879 -4.1813,-0.80467 -4.5509,-1.96919 -0.37533,-1.18257 -0.95667,-1.18365 -1.58857,-0.003 -0.65671,1.22708 -3.237767,2.27624 -4.698123,1.90971 -1.059238,-0.26585 -1.114317,-0.21351 -0.662924,0.62992 0.818899,1.53013 0.571399,3.48276 -0.621077,4.89994 l -1.113372,1.32316 1.302682,0.45412 c 1.498848,0.5225 2.765946,2.22823 2.859537,3.84941 0.07432,1.2874 0.196535,1.32638 1.371697,0.43754 z M 15.555556,84.157083 c 0,-0.158051 0.618078,-2.208052 1.373506,-4.555556 0.927185,-2.881241 1.792172,-7.301059 2.661908,-13.601524 2.415596,-17.498855 3.394956,-20.587886 8.216468,-25.915829 3.766261,-4.161853 6.336025,-5.572913 18.509647,-10.163663 10.60409,-3.99887 11.581918,-4.469682 21.593384,-10.396961 10.994158,-6.509081 13.717176,-7.680404 19.084419,-8.209278 3.457572,-0.340701 8.911764,0.542275 12.217312,1.977852 1.0444,0.453578 6.20882,3.408135 11.47648,6.565684 8.96778,5.375475 10.21285,5.977838 19.55556,9.460901 11.52718,4.297459 13.99035,5.444457 17.21069,8.014318 3.73075,2.977178 8.49361,10.471763 8.53453,13.429496 0.007,0.53683 -1.79821,1.681127 -6.10056,3.86615 -7.28189,3.698225 -18.67793,10.482034 -23.98157,14.275683 -4.57073,3.269413 -5.01844,3.475851 -5.01844,2.314023 0,-1.701849 -3.12237,-7.152751 -5.08865,-8.88354 -5.50055,-4.841777 -14.4649,-6.472548 -26.316934,-4.787512 -14.653354,2.083307 -37.952734,10.351181 -66.294166,23.524738 -7.593772,3.529707 -7.633584,3.545797 -7.633584,3.085018 z M 60.241412,17.180101 c -0.46664,-0.341215 -0.709834,-0.991407 -0.616951,-1.649446 0.123723,-0.876532 0.410701,-1.08621 1.486653,-1.08621 1.115915,0 1.355795,0.194426 1.471081,1.19233 0.174505,1.510497 -1.171774,2.398126 -2.340783,1.543326 z"
       id="path5" />
  </g>
</svg>
